<svg xmlns="http://www.w3.org/2000/svg" viewBox="0 0 800 500" role="img" aria-label="Placeholder aviation scene">
  <defs>
    <linearGradient id="sky" x1="0" y1="0" x2="0" y2="1">
      <stop offset="0%" stop-color="#bcd4e6"/>
      <stop offset="100%" stop-color="#eef4f8"/>
    </linearGradient>
  </defs>
  <rect width="800" height="500" fill="url(#sky)"/>
  <rect y="380" width="800" height="120" fill="#c9c2b6"/>
  <polygon points="330,500 470,500 430,385 370,385" fill="#8a8a8a"/>
  <rect x="398" y="392" width="4" height="18" fill="#f4f4f4"/>
  <rect x="398" y="424" width="4" height="18" fill="#f4f4f4"/>
  <rect x="398" y="456" width="4" height="22" fill="#f4f4f4"/>
  <g fill="#3a4a5a">
    <ellipse cx="400" cy="250" rx="150" ry="26"/>
    <polygon points="300,250 250,238 300,232"/>
    <polygon points="470,250 545,244 470,258"/>
    <polygon points="400,232 360,190 385,232"/>
    <polygon points="400,232 440,190 415,232"/>
    <rect x="392" y="224" width="16" height="30"/>
  </g>
  <text x="400" y="120" text-anchor="middle" font-family="sans-serif" font-size="30" font-weight="700" fill="#2a3642">Picture Description</text>
  <text x="400" y="150" text-anchor="middle" font-family="sans-serif" font-size="16" fill="#5a6672">Placeholder image — licensed aviation photo to follow</text>
</svg>
